<svg width="29" height="31" viewBox="0 0 29 31" fill="none" xmlns="http://www.w3.org/2000/svg">
<g clip-path="url(#clip0_121_71)">
<path d="M9.34004 1.48887C8.90391 0.362693 7.7541 -0.236721 6.65527 0.0841777L1.6709 1.5373C0.685352 1.82793 0 2.78457 0 3.87441C0 18.8537 11.3621 30.9994 25.375 30.9994C26.3945 30.9994 27.2895 30.2668 27.5613 29.2133L28.9207 23.8852C29.2209 22.7105 28.6602 21.4814 27.6066 21.0152L22.1691 18.5934C21.2459 18.1816 20.1754 18.4662 19.5467 19.2957L17.2584 22.2807C13.2709 20.2645 10.0424 16.8133 8.15625 12.5508L10.9486 10.1107C11.7246 9.43262 11.9908 8.29433 11.6057 7.30742L9.34004 1.49492V1.48887Z" fill="#FF8A00"/>
</g>
<defs>
<clipPath id="clip0_121_71">
<rect width="29" height="31" fill="white"/>
</clipPath>
</defs>
</svg>
