<svg width="36" height="32" viewBox="0 0 36 32" fill="none" xmlns="http://www.w3.org/2000/svg">
<path d="M0 8C0 5.79375 1.79375 4 4 4H20C22.2062 4 24 5.79375 24 8V24C24 26.2062 22.2062 28 20 28H4C1.79375 28 0 26.2062 0 24V8ZM34.9437 6.2375C35.5938 6.5875 36 7.2625 36 8V24C36 24.7375 35.5938 25.4125 34.9437 25.7625C34.2937 26.1125 33.5063 26.075 32.8875 25.6625L26.8875 21.6625L26 21.0688V20V12V10.9312L26.8875 10.3375L32.8875 6.3375C33.5 5.93125 34.2875 5.8875 34.9437 6.2375Z" fill="#FF8A00"/>
</svg>
